<?xml version="1.0" encoding="utf-8"?>
<!-- Generator: Adobe Illustrator 24.0.1, SVG Export Plug-In . SVG Version: 6.00 Build 0)  -->
<svg version="1.1" id="Livello_1" xmlns="http://www.w3.org/2000/svg" xmlns:xlink="http://www.w3.org/1999/xlink" x="0px" y="0px"
	 viewBox="0 0 464.65 285.49" style="enable-background:new 0 0 464.65 285.49;" xml:space="preserve">
<style type="text/css">
	.st0{fill:#005F7D;}
	.st1{fill:#CA1517;}
	.st2{fill:#9B442F;}
	.st3{fill:#C4C900;}
	.st4{fill:#C6C7E5;}
</style>
<g>
	<g>
		<path class="st0" d="M298.92,221.03c-17.96,0-36.06-5.55-51.56-17.05l0.85-1.14c37.74,28.02,91.23,20.12,119.25-17.62
			c28.02-37.74,20.12-91.23-17.62-119.25c-37.74-28.02-91.23-20.12-119.26,17.62l-1.14-0.84c28.49-38.36,82.87-46.4,121.24-17.91
			c18.58,13.8,30.68,34.01,34.06,56.91c3.38,22.9-2.35,45.74-16.15,64.33C351.62,208.94,325.43,221.03,298.92,221.03z"/>
	</g>
	<g>
		<path class="st1" d="M61.22,105.22v-0.22c0-2.99,2.12-4.9,5.79-4.9c4.01,0,5.77,1.89,5.77,5.7v0.5h-2.91
			c0-2.54-0.82-3.66-2.84-3.66h-0.19c-1.6,0-2.65,0.89-2.65,2.21v0.13c0,1.39,0.63,2.17,3.3,2.54c3.69,0.5,5.44,1.82,5.44,4.79v0.24
			c0,3.17-2.15,5.03-5.92,5.03c-3.88,0-5.94-1.89-5.94-5.77v-0.22h2.91c0,2.41,1.11,3.45,2.93,3.45h0.2c1.82,0,2.86-0.98,2.86-2.38
			v-0.13c0-1.47-0.82-2.25-3.4-2.6C62.86,109.43,61.22,108.02,61.22,105.22z"/>
		<path class="st1" d="M80.84,115.04h0.19c1.97,0,2.73-1.32,2.73-3.45h2.93v0.22c0,3.99-1.95,5.77-5.83,5.77
			c-4.23,0-6.18-2.45-6.18-8.3v-0.87c0-5.85,1.95-8.3,6.18-8.3c3.88,0,5.83,1.78,5.83,5.9v0.74h-2.93c0-2.69-0.67-4.1-2.73-4.1
			h-0.19c-2.41,0-3.19,1.95-3.19,5.77v0.87C77.65,113.09,78.41,115.04,80.84,115.04z"/>
		<path class="st1" d="M88.82,111.99v-11.6h2.91v11.49c0,2.23,0.8,3.17,2.99,3.17c2.17,0,2.97-0.93,2.97-3.17v-11.49h2.91v11.6
			c0,3.79-1.6,5.59-5.88,5.59C90.42,117.58,88.82,115.78,88.82,111.99z"/>
		<path class="st1" d="M102.76,109.28v-0.87c0-5.85,2.02-8.3,6.27-8.3c4.23,0,6.24,2.45,6.24,8.3v0.87c0,5.85-2.02,8.3-6.24,8.3
			C104.78,117.58,102.76,115.13,102.76,109.28z M109.11,115.04c2.36,0,3.19-1.95,3.19-5.77v-0.87c0-3.82-0.82-5.77-3.19-5.77h-0.19
			c-2.36,0-3.19,1.95-3.19,5.77v0.87c0,3.82,0.82,5.77,3.19,5.77H109.11z"/>
		<path class="st1" d="M117.55,117.3v-16.91h2.91v14.38h6.53v2.54H117.55z"/>
		<path class="st1" d="M136.15,100.3l4.45,17h-3.12l-0.93-3.86h-4.77l-0.93,3.86h-3.14l4.44-17H136.15z M132.38,110.9h3.53
			l-1.76-7.29L132.38,110.9z"/>
		<path class="st1" d="M151.64,117.3h-4.99v-16.91h4.99c4.75,0,6.94,2.17,6.94,8.02v0.87C158.57,115.13,156.39,117.3,151.64,117.3z
			 M151.46,114.76c3.01,0,4.14-1.67,4.14-5.49v-0.87c0-3.82-1.13-5.49-4.14-5.49h-1.91v11.84H151.46z"/>
		<path class="st1" d="M163.87,117.3h-2.91v-16.91h2.91V117.3z"/>
		<path class="st1" d="M180.87,100.39v2.54h-7v4.49h5.92v2.52h-5.92v7.37h-2.91v-16.91H180.87z"/>
		<path class="st1" d="M182.25,109.28v-0.87c0-5.85,2.02-8.3,6.27-8.3c4.23,0,6.24,2.45,6.24,8.3v0.87c0,5.85-2.02,8.3-6.24,8.3
			C184.27,117.58,182.25,115.13,182.25,109.28z M188.61,115.04c2.36,0,3.19-1.95,3.19-5.77v-0.87c0-3.82-0.82-5.77-3.19-5.77h-0.19
			c-2.36,0-3.19,1.95-3.19,5.77v0.87c0,3.82,0.82,5.77,3.19,5.77H188.61z"/>
		<path class="st1" d="M199.95,117.3h-2.91v-16.91h5.29c2.65,0,5.66,0.78,5.66,5.07v0.43c0,2.71-1.21,4.03-2.75,4.64l2.75,6.76
			h-3.14l-2.43-6.31h-2.47V117.3z M202.44,108.45c1.13,0,2.6-0.41,2.6-2.65v-0.24c0-2.23-1.47-2.65-2.6-2.65h-2.49v5.53H202.44z"/>
		<path class="st1" d="M219.61,117.3h-2.91l-3.6-11.86l0.09,3.49v8.37h-2.91v-16.91h4.27l3.6,11.88l3.62-11.88h4.27v16.91h-2.91
			v-8.37l0.09-3.49L219.61,117.3z"/>
		<path class="st1" d="M236.22,100.3l4.45,17h-3.12l-0.93-3.86h-4.77l-0.93,3.86h-3.14l4.44-17H236.22z M232.45,110.9h3.53
			l-1.76-7.29L232.45,110.9z"/>
		<path class="st1" d="M249.15,102.86l-2.97,0.06h-4.03v-2.54h10.56v1.99l-7.22,12.45l2.97-0.07h4.47v2.54h-10.99v-2L249.15,102.86z
			"/>
		<path class="st1" d="M258.13,117.3h-2.91v-16.91h2.91V117.3z"/>
		<path class="st1" d="M260.51,109.28v-0.87c0-5.85,2.02-8.3,6.27-8.3c4.23,0,6.24,2.45,6.24,8.3v0.87c0,5.85-2.02,8.3-6.24,8.3
			C262.53,117.58,260.51,115.13,260.51,109.28z M266.86,115.04c2.36,0,3.19-1.95,3.19-5.77v-0.87c0-3.82-0.82-5.77-3.19-5.77h-0.19
			c-2.36,0-3.19,1.95-3.19,5.77v0.87c0,3.82,0.82,5.77,3.19,5.77H266.86z"/>
		<path class="st1" d="M287.29,117.3h-3.08l-6.25-11.67l0.09,3.58v8.09h-2.75v-16.91h3.08l6.25,11.67l-0.09-3.58v-8.09h2.75V117.3z"
			/>
		<path class="st1" d="M300,100.39v2.54h-7.16v4.49h6.07v2.52h-6.07v4.83H300v2.54h-10.06v-16.91H300z"/>
		<path class="st1" d="M309.54,117.3h-2.91v-16.91h2.91V117.3z"/>
		<path class="st1" d="M324.28,117.3h-3.08l-6.25-11.67l0.09,3.58v8.09h-2.75v-16.91h3.08l6.25,11.67l-0.09-3.58v-8.09h2.75V117.3z"
			/>
		<path class="st0" d="M69.26,152.5v9.27h-7.11v-22.41l-0.39-5.8h6.41l0.42,2.4c1.16-1.74,2.98-2.94,5.76-2.94
			c5.6,0,7.53,4.02,7.53,10.01v1.54c0,5.99-1.93,10.01-7.53,10.01C72.05,154.59,70.42,153.78,69.26,152.5z M69.26,146.9
			c0.39,0.58,1.43,1.58,2.97,1.58c1.93,0,2.59-1.39,2.59-3.9v-1.54c0-2.51-0.66-3.9-2.59-3.9c-1.54,0-2.59,1-2.97,1.58V146.9z"/>
		<path class="st0" d="M95.15,147.75c0-0.85-0.39-1.39-2.32-1.54c-5.87-0.46-8.62-1.74-8.62-5.83v-0.39c0-5.06,4.02-6.95,8.89-6.95
			c6.14,0,8.89,2.59,8.89,7.11v0.19h-6.95c0-1.24-0.66-1.97-1.93-1.97s-1.93,0.58-1.93,1.39c0,0.97,0.5,1.31,2.24,1.47
			c5.14,0.42,8.85,1.35,8.85,5.83v0.39c0,4.48-3.01,7.15-9.16,7.15c-6.03,0-9.16-2.67-9.16-6.92v-0.19h7.07
			c0,1.12,0.62,1.78,2.09,1.78C94.65,149.26,95.15,148.56,95.15,147.75z"/>
		<path class="st0" d="M112.42,131.25h-7.34v-7.34h7.34V131.25z M105.19,133.57h7.11v20.48h-7.11V133.57z"/>
		<path class="st0" d="M124.74,148.49c1.39,0,2.24-0.81,2.24-2.16h6.68v0.93c0,4.48-3.13,7.34-9.08,7.34
			c-6.61,0-9.47-4.02-9.47-10.01v-1.54c0-5.99,2.86-10.01,9.47-10.01c5.95,0,9.08,2.86,9.08,7.73v0.93h-6.68
			c0-1.78-0.85-2.55-2.24-2.55c-1.89,0-2.55,1.39-2.55,3.9v1.54C122.19,147.09,122.85,148.49,124.74,148.49z"/>
		<path class="st0" d="M135.52,144.58v-1.54c0-5.99,3.09-10.01,9.85-10.01c6.76,0,9.85,4.02,9.85,10.01v1.54
			c0,5.99-3.09,10.01-9.85,10.01C138.61,154.59,135.52,150.57,135.52,144.58z M148.15,144.58v-1.54c0-2.51-0.85-3.9-2.78-3.9
			c-1.93,0-2.78,1.39-2.78,3.9v1.54c0,2.51,0.85,3.9,2.78,3.9C147.3,148.49,148.15,147.09,148.15,144.58z"/>
		<path class="st0" d="M181.38,154.05V141.3c0-1.16-0.42-2.16-1.97-2.16c-1.35,0-2.16,0.81-2.55,1.39v13.52h-7.11V141.3
			c0-1.16-0.42-2.16-1.97-2.16c-1.35,0-2.16,0.81-2.55,1.39v13.52h-7.11v-14.68l-0.39-5.8h6.41l0.42,2.36
			c1.28-1.74,3.25-2.9,6.1-2.9c2.74,0,4.44,1.28,5.37,3.13c1.24-1.85,3.28-3.13,6.26-3.13c4.44,0,6.18,3.25,6.18,7.11v13.91H181.38z
			"/>
		<path class="st0" d="M191.15,144.58v-1.54c0-5.99,3.09-10.01,9.85-10.01c6.76,0,9.85,4.02,9.85,10.01v1.54
			c0,5.99-3.09,10.01-9.85,10.01C194.24,154.59,191.15,150.57,191.15,144.58z M203.79,144.58v-1.54c0-2.51-0.85-3.9-2.78-3.9
			c-1.93,0-2.78,1.39-2.78,3.9v1.54c0,2.51,0.85,3.9,2.78,3.9C202.94,148.49,203.79,147.09,203.79,144.58z"/>
		<path class="st0" d="M227.04,133.57v6.18h-4.91v5.99c0,2.32,1.12,2.74,2.74,2.74c0.62,0,1.58-0.15,1.78-0.23v5.79
			c-0.35,0.19-1.51,0.54-3.44,0.54c-4.91,0-8.19-2.09-8.19-8.08v-6.76h-3.09v-6.18h3.09v-5.8h7.11v5.8H227.04z"/>
		<path class="st0" d="M242.69,133.07v7.26h-1.16c-2.32,0-3.67,0.77-4.13,1.35v12.36h-7.11v-14.68l-0.39-5.8h6.41l0.42,2.28
			c1.24-1.7,3.05-2.82,5.37-2.82C242.3,133.03,242.5,133.03,242.69,133.07z"/>
		<path class="st0" d="M252.89,131.25h-7.34v-7.34h7.34V131.25z M245.66,133.57h7.11v20.48h-7.11V133.57z"/>
		<path class="st0" d="M265.21,148.49c1.39,0,2.24-0.81,2.24-2.16h6.68v0.93c0,4.48-3.13,7.34-9.08,7.34
			c-6.61,0-9.47-4.02-9.47-10.01v-1.54c0-5.99,2.86-10.01,9.47-10.01c5.95,0,9.08,2.86,9.08,7.73v0.93h-6.68
			c0-1.78-0.85-2.55-2.24-2.55c-1.89,0-2.55,1.39-2.55,3.9v1.54C262.66,147.09,263.32,148.49,265.21,148.49z"/>
		<path class="st0" d="M284.11,131.25h-7.34v-7.34h7.34V131.25z M276.88,133.57h7.11v20.48h-7.11V133.57z"/>
		<path class="st0" d="M301.53,133.57v6.18h-4.91v5.99c0,2.32,1.12,2.74,2.74,2.74c0.62,0,1.58-0.15,1.78-0.23v5.79
			c-0.35,0.19-1.51,0.54-3.44,0.54c-4.91,0-8.19-2.09-8.19-8.08v-6.76h-3.09v-6.18h3.09v-5.8h7.11v5.8H301.53z"/>
		<path class="st0" d="M316.36,152.12c-1.43,1.51-3.48,2.47-6.18,2.47c-4.83,0-6.38-3.05-6.38-6.34v-0.39
			c0-4.44,2.97-5.95,7.53-6.65l4.33-0.7c-0.08-1.47-0.66-2.16-2.2-2.16c-1.74,0-2.2,1-2.2,1.97h-6.68v-0.35
			c0-3.71,2.12-6.95,9.08-6.95c6.99,0,9.12,2.82,9.12,7.88v7.34l0.39,5.79h-6.41L316.36,152.12z M313.66,123.91l3.52,7.34h-7.03
			l-4.29-7.34H313.66z M315.67,147.75v-3.13l-2.78,0.42c-1.66,0.27-2.01,1-2.01,1.93v0.23c0,0.81,0.54,1.66,2.01,1.66
			C314.09,148.87,315.09,148.29,315.67,147.75z"/>
		<path class="st0" d="M74.6,169.82v7.26h-1.16c-2.32,0-3.67,0.77-4.13,1.35v12.36h-7.11v-14.68l-0.39-5.79h6.41l0.42,2.28
			c1.24-1.7,3.05-2.82,5.37-2.82C74.21,169.78,74.4,169.78,74.6,169.82z"/>
		<path class="st0" d="M82.86,183.07c0.23,2.32,1.39,2.94,3.17,2.94c1.54,0,2.74-0.81,2.74-1.78h6.68v0.16
			c0,4.09-3.52,6.95-9.47,6.95c-6.99,0-10.24-4.21-10.24-10.2v-1.16c0-5.99,3.4-10.2,10.01-10.2s9.7,4.21,9.7,10.2v3.09H82.86z
			 M82.86,178.05h5.49c-0.19-2.16-1.08-2.94-2.74-2.94C83.94,175.11,83.06,175.88,82.86,178.05z"/>
		<path class="st0" d="M98.28,159.89h7.11v30.91h-7.11V159.89z"/>
		<path class="st0" d="M120.76,188.87c-1.43,1.51-3.48,2.47-6.18,2.47c-4.83,0-6.38-3.05-6.38-6.34v-0.39
			c0-4.44,2.97-5.95,7.53-6.65l4.33-0.7c-0.08-1.47-0.66-2.16-2.2-2.16c-1.74,0-2.2,1-2.2,1.97h-6.68v-0.35
			c0-3.71,2.12-6.95,9.08-6.95c6.99,0,9.12,2.82,9.12,7.88V185l0.39,5.79h-6.41L120.76,188.87z M120.07,184.5v-3.13l-2.78,0.42
			c-1.66,0.27-2.01,1-2.01,1.93v0.23c0,0.81,0.54,1.66,2.01,1.66C118.48,185.62,119.49,185.04,120.07,184.5z"/>
		<path class="st0" d="M138.07,176.35l-4.17,0.15h-3.86v-6.18h17.39v4.87l-8.42,9.58l4.17-0.15h4.64v6.18h-18.16v-4.87
			L138.07,176.35z"/>
		<path class="st0" d="M157.66,168h-7.34v-7.34h7.34V168z M150.43,170.32h7.11v20.48h-7.11V170.32z"/>
		<path class="st0" d="M160.36,181.33v-1.54c0-5.99,3.09-10.01,9.85-10.01c6.76,0,9.85,4.02,9.85,10.01v1.54
			c0,5.99-3.09,10.01-9.85,10.01C163.45,191.34,160.36,187.32,160.36,181.33z M173,181.33v-1.54c0-2.51-0.85-3.9-2.78-3.9
			c-1.93,0-2.78,1.39-2.78,3.9v1.54c0,2.51,0.85,3.9,2.78,3.9C172.15,185.23,173,183.84,173,181.33z"/>
		<path class="st0" d="M195.21,190.8v-12.56c0-0.97-0.23-2.36-2.16-2.36c-1.55,0-2.59,1-2.97,1.58v13.33h-7.11v-14.68l-0.39-5.79
			h6.41l0.46,2.55c1.35-1.82,3.44-3.09,6.49-3.09c4.83,0,6.38,3.63,6.38,7.3v13.72H195.21z"/>
		<path class="st0" d="M217.54,188.87c-1.43,1.51-3.48,2.47-6.18,2.47c-4.83,0-6.38-3.05-6.38-6.34v-0.39
			c0-4.44,2.97-5.95,7.53-6.65l4.33-0.7c-0.08-1.47-0.66-2.16-2.2-2.16c-1.74,0-2.2,1-2.2,1.97h-6.68v-0.35
			c0-3.71,2.12-6.95,9.08-6.95c6.99,0,9.12,2.82,9.12,7.88V185l0.39,5.79h-6.41L217.54,188.87z M216.85,184.5v-3.13l-2.78,0.42
			c-1.66,0.27-2.01,1-2.01,1.93v0.23c0,0.81,0.54,1.66,2.01,1.66C215.26,185.62,216.27,185.04,216.85,184.5z"/>
		<path class="st0" d="M227.51,159.89h7.11v30.91h-7.11V159.89z"/>
		<path class="st0" d="M244.55,183.07c0.23,2.32,1.39,2.94,3.17,2.94c1.54,0,2.74-0.81,2.74-1.78h6.68v0.16
			c0,4.09-3.52,6.95-9.47,6.95c-6.99,0-10.24-4.21-10.24-10.2v-1.16c0-5.99,3.4-10.2,10.01-10.2s9.7,4.21,9.7,10.2v3.09H244.55z
			 M244.55,178.05h5.49c-0.19-2.16-1.08-2.94-2.74-2.94C245.63,175.11,244.74,175.88,244.55,178.05z"/>
	</g>
	<g id="XMLID_47_">
		<path class="st2" d="M385.51,87.88c-5.3,12.2-19.49,17.79-31.69,12.48c-12.2-5.3-17.79-19.49-12.48-31.69
			c5.3-12.2,19.49-17.79,31.69-12.48C385.22,61.5,390.81,75.69,385.51,87.88z"/>
	</g>
	<g id="XMLID_41_">
		<path class="st3" d="M402.24,151.39c-4.45,10.25-16.37,14.94-26.62,10.49c-10.25-4.45-14.94-16.37-10.49-26.62
			c4.45-10.25,16.37-14.94,26.62-10.49S406.69,141.15,402.24,151.39z"/>
	</g>
	<g id="XMLID_34_">
		<path class="st4" d="M367,206.57c-3.34,7.69-12.28,11.21-19.97,7.87c-7.69-3.34-11.21-12.28-7.87-19.97
			c3.34-7.69,12.28-11.21,19.97-7.87C366.82,189.94,370.34,198.89,367,206.57z"/>
	</g>
</g>
</svg>
