<?xml version="1.0" encoding="utf-8"?>
<!-- Generator: Adobe Illustrator 24.0.1, SVG Export Plug-In . SVG Version: 6.00 Build 0)  -->
<svg version="1.1" id="Livello_1" xmlns="http://www.w3.org/2000/svg" xmlns:xlink="http://www.w3.org/1999/xlink" x="0px" y="0px"
	 viewBox="0 0 464.65 285.49" style="enable-background:new 0 0 464.65 285.49;" xml:space="preserve">
<style type="text/css">
	.st0{opacity:0.89;}
	.st1{clip-path:url(#SVGID_2_);fill:#B9BFE1;}
	.st2{opacity:0.92;}
	.st3{clip-path:url(#SVGID_4_);fill:#B9BFE1;}
	.st4{opacity:0.83;}
	.st5{clip-path:url(#SVGID_6_);fill:#FBB16B;}
	.st6{opacity:0.76;}
	.st7{clip-path:url(#SVGID_8_);fill:#FBB16B;}
	.st8{opacity:0.98;}
	.st9{clip-path:url(#SVGID_10_);fill:#BDCA31;}
	.st10{clip-path:url(#SVGID_12_);fill:#BDCA31;}
	.st11{fill:#00647F;}
	.st12{fill:#CD2027;}
	.st13{opacity:0.7;}
	.st14{clip-path:url(#SVGID_14_);fill:#CD2027;}
	.st15{opacity:0.68;}
	.st16{clip-path:url(#SVGID_16_);fill:#B9BFE1;}
	.st17{clip-path:url(#SVGID_18_);fill:#B9BFE1;}
	.st18{opacity:0.74;}
	.st19{clip-path:url(#SVGID_20_);fill:#FBB16B;}
	.st20{opacity:0.85;}
	.st21{clip-path:url(#SVGID_22_);fill:#B9BFE1;}
	.st22{clip-path:url(#SVGID_24_);fill:#BDCA31;}
	.st23{clip-path:url(#SVGID_26_);fill:#B9BFE1;}
	.st24{clip-path:url(#SVGID_28_);fill:#BDCA31;}
	.st25{clip-path:url(#SVGID_30_);fill:#B9BFE1;}
	.st26{fill:#FBB16B;}
	.st27{opacity:0.62;}
	.st28{clip-path:url(#SVGID_32_);fill:#FBB16B;}
	.st29{opacity:0.9;}
	.st30{clip-path:url(#SVGID_34_);fill:#B9BFE1;}
	.st31{clip-path:url(#SVGID_36_);fill:#FBB16B;}
	.st32{clip-path:url(#SVGID_38_);fill:#CD2027;}
	.st33{clip-path:url(#SVGID_40_);fill:#FBB16B;}
	.st34{opacity:0.64;}
	.st35{clip-path:url(#SVGID_42_);fill:#B9BFE1;}
	.st36{opacity:0.77;}
	.st37{clip-path:url(#SVGID_44_);fill:#FBB16B;}
	.st38{opacity:0.81;}
	.st39{clip-path:url(#SVGID_46_);fill:#FBB16B;}
	.st40{clip-path:url(#SVGID_48_);fill:#B9BFE1;}
	.st41{opacity:0.73;}
	.st42{clip-path:url(#SVGID_50_);fill:#B9BFE1;}
	.st43{clip-path:url(#SVGID_52_);fill:#FBB16B;}
	.st44{clip-path:url(#SVGID_54_);fill:#CD2027;}
	.st45{opacity:0.88;}
	.st46{clip-path:url(#SVGID_56_);fill:#B9BFE1;}
	.st47{clip-path:url(#SVGID_58_);fill:#BDCA31;}
	.st48{clip-path:url(#SVGID_60_);fill:#CD2027;}
	.st49{opacity:0.93;}
	.st50{clip-path:url(#SVGID_62_);fill:#BDCA31;}
	.st51{clip-path:url(#SVGID_64_);fill:#BDCA31;}
	.st52{clip-path:url(#SVGID_66_);fill:#BDCA31;}
	.st53{opacity:0.53;}
	.st54{clip-path:url(#SVGID_68_);fill:#FBB16B;}
	.st55{clip-path:url(#SVGID_70_);fill:#BDCA31;}
	.st56{clip-path:url(#SVGID_72_);fill:#BDCA31;}
	.st57{clip-path:url(#SVGID_74_);fill:#CD2027;}
	.st58{fill:#B9BFE1;}
</style>
<g>
	<g>
		<g class="st0">
			<g>
				<defs>
					<rect id="SVGID_1_" x="87.01" y="86.97" width="7.05" height="7.05"/>
				</defs>
				<clipPath id="SVGID_2_">
					<use xlink:href="#SVGID_1_"  style="overflow:visible;"/>
				</clipPath>
				<path class="st1" d="M93.45,92.47c1.09-1.61,0.67-3.8-0.94-4.89c-1.61-1.09-3.8-0.67-4.89,0.94c-1.09,1.61-0.67,3.8,0.94,4.89
					C90.17,94.5,92.36,94.08,93.45,92.47"/>
			</g>
		</g>
		<g class="st2">
			<g>
				<defs>
					<rect id="SVGID_3_" x="56.94" y="162.52" width="21.62" height="21.62"/>
				</defs>
				<clipPath id="SVGID_4_">
					<use xlink:href="#SVGID_3_"  style="overflow:visible;"/>
				</clipPath>
				<path class="st3" d="M56.96,174.09c0.42,5.96,5.59,10.44,11.54,10.02c5.96-0.42,10.44-5.59,10.02-11.54
					c-0.42-5.95-5.59-10.44-11.54-10.02C61.03,162.97,56.54,168.14,56.96,174.09"/>
			</g>
		</g>
		<g class="st4">
			<g>
				<defs>
					<rect id="SVGID_5_" x="40.85" y="85.96" width="12.68" height="6.74"/>
				</defs>
				<clipPath id="SVGID_6_">
					<use xlink:href="#SVGID_5_"  style="overflow:visible;"/>
				</clipPath>
				<path class="st5" d="M47.78,92.49c3.48-0.65,6.05-2.6,5.72-4.34c-0.33-1.74-3.42-2.62-6.9-1.97c-3.48,0.65-6.05,2.6-5.72,4.34
					C41.2,92.26,44.29,93.15,47.78,92.49"/>
			</g>
		</g>
		<g class="st6">
			<g>
				<defs>
					<rect id="SVGID_7_" x="47.78" y="125.95" width="5.12" height="3.37"/>
				</defs>
				<clipPath id="SVGID_8_">
					<use xlink:href="#SVGID_7_"  style="overflow:visible;"/>
				</clipPath>
				<path class="st7" d="M50.91,128.89c1.38-0.63,2.24-1.69,1.93-2.38c-0.31-0.69-1.69-0.74-3.06-0.11
					c-1.38,0.62-2.24,1.69-1.92,2.38C48.16,129.46,49.53,129.52,50.91,128.89"/>
			</g>
		</g>
		<g class="st8">
			<g>
				<defs>
					<rect id="SVGID_9_" x="112.86" y="129.24" width="19.35" height="19.36"/>
				</defs>
				<clipPath id="SVGID_10_">
					<use xlink:href="#SVGID_9_"  style="overflow:visible;"/>
				</clipPath>
				<path class="st9" d="M112.92,137.8c-0.62,5.31,3.19,10.11,8.49,10.73c5.31,0.62,10.11-3.19,10.73-8.49
					c0.62-5.31-3.19-10.11-8.5-10.73C118.34,128.69,113.54,132.49,112.92,137.8"/>
			</g>
		</g>
		<g class="st8">
			<g>
				<defs>
					<rect id="SVGID_11_" x="128.72" y="123.48" width="16.95" height="16.95"/>
				</defs>
				<clipPath id="SVGID_12_">
					<use xlink:href="#SVGID_11_"  style="overflow:visible;"/>
				</clipPath>
				<path class="st10" d="M134.92,140.12c4.51,1.26,9.18-1.37,10.44-5.88c1.26-4.51-1.37-9.18-5.88-10.44
					c-4.51-1.26-9.18,1.37-10.44,5.88C127.78,134.19,130.41,138.86,134.92,140.12"/>
			</g>
		</g>
	</g>
	<path class="st11" d="M148.39,187.17H41.09V79.87h107.3V187.17z M48.52,179.73h92.44V87.3H48.52V179.73z"/>
	<g>
		<path class="st12" d="M184.29,105.24c3.2,0,4.45-2.03,4.45-4.38h3.75v0.7c0,3.63-2.5,7.11-8.28,7.11c-6.21,0-8.91-4.46-8.91-10.28
			v-1.09c0-5.82,2.69-10.27,8.91-10.27c5.78,0,8.28,3.6,8.28,7.38v0.82h-3.75c0-2.78-1.33-4.77-4.45-4.77
			c-3.51,0-5.04,2.69-5.04,6.83v1.09C179.25,102.55,180.77,105.24,184.29,105.24"/>
		<path class="st12" d="M199.68,99.34c0.16,4.02,1.87,6.21,5.43,6.21c3.44,0,5-2.11,5-3.98h3.75v0.16c0,3.48-2.89,6.95-8.79,6.95
			c-6.48,0-9.34-4.53-9.34-10.35v-0.94c0-5.82,2.89-10.35,9.14-10.35c6.21,0,8.98,4.53,8.98,10.35v1.95H199.68z M199.68,96.38h10.23
			c-0.15-3.91-1.76-6.21-5.12-6.21C201.43,90.17,199.79,92.47,199.68,96.38"/>
		<path class="st12" d="M230.73,108.21V94.5c0-2.58-1.37-4.02-3.91-4.02c-2.81,0-4.3,1.64-5,2.78v14.96h-3.91V93.37l-0.27-5.86H221
			l0.43,2.85c1.25-1.87,3.44-3.32,6.83-3.32c4.34,0,6.33,3.01,6.33,6.83v14.34H230.73z"/>
		<path class="st12" d="M250.69,87.51v3.48h-6.17v10.55c0,3.01,1.29,3.71,3.63,3.71c0.82,0,1.84-0.2,2.15-0.31v3.28
			c-0.31,0.16-1.33,0.47-3.05,0.47c-3.9,0-6.64-1.8-6.64-6.72V90.99h-3.24v-3.48h3.24v-5.86h3.91v5.86H250.69z"/>
		<path class="st12" d="M264.56,87.08v3.75h-0.7c-2.93,0-4.42,1.52-5.16,2.66v14.73h-3.9V93.37l-0.28-5.86h3.36l0.39,2.66
			c1.17-1.76,3.05-3.12,5.7-3.12C264.2,87.04,264.48,87.08,264.56,87.08"/>
		<path class="st12" d="M266.74,98.41v-1.09c0-5.82,2.77-10.27,9.06-10.27c6.29,0,9.06,4.45,9.06,10.27v1.09
			c0,5.82-2.77,10.27-9.06,10.27C269.52,108.68,266.74,104.23,266.74,98.41 M280.92,98.41v-1.09c0-4.14-1.6-6.84-5.12-6.84
			c-3.52,0-5.12,2.69-5.12,6.84v1.09c0,4.14,1.6,6.84,5.12,6.84C279.32,105.25,280.92,102.55,280.92,98.41"/>
		<path class="st12" d="M308.89,102.35c0-2.26-1.33-2.93-4.8-3.2c-5.66-0.51-7.58-2.26-7.58-5.62v-0.27c0-3.98,3.17-6.21,8.05-6.21
			c5.82,0,8.09,2.85,8.09,7.03v0.16h-3.87c0-2.5-1.05-4.06-4.22-4.06c-2.62,0-4.14,1.09-4.14,3.01c0,1.87,0.86,2.81,4.61,3.12
			c5.2,0.39,7.85,1.76,7.85,5.74v0.24c0,3.83-2.89,6.41-8.32,6.41c-5.94,0-8.28-3.24-8.28-6.72v-0.15h3.87
			c0,1.95,1.02,3.75,4.42,3.75C307.45,105.56,308.89,104.27,308.89,102.35"/>
		<path class="st12" d="M328.7,87.51v3.48h-6.17v10.55c0,3.01,1.29,3.71,3.63,3.71c0.82,0,1.84-0.2,2.15-0.31v3.28
			c-0.31,0.16-1.33,0.47-3.05,0.47c-3.91,0-6.64-1.8-6.64-6.72V90.99h-3.24v-3.48h3.24v-5.86h3.91v5.86H328.7z"/>
		<path class="st12" d="M336.47,87.51v13.71c0,2.58,1.37,4.03,3.87,4.03c2.81,0,4.3-1.64,5.04-2.78V87.51h3.91v14.84l0.28,5.86h-3.4
			l-0.43-2.85c-1.25,1.87-3.44,3.32-6.84,3.32c-4.3,0-6.33-3.01-6.33-6.84V87.51H336.47z"/>
		<path class="st12" d="M366.98,89.66v-12.7h3.94v25.39l0.28,5.86h-3.4l-0.43-2.69c-1.13,1.8-3.01,3.17-6.05,3.17
			c-5.66,0-7.85-4.46-7.85-10.28v-1.09c0-5.82,2.19-10.27,7.85-10.27C364.01,87.04,365.81,88.13,366.98,89.66 M366.98,93.25
			c-0.7-1.13-2.15-2.77-4.65-2.77c-3.4,0-4.92,2.62-4.92,6.83v1.09c0,4.22,1.52,6.84,4.92,6.84c2.5,0,3.95-1.64,4.65-2.77V93.25z"/>
		<path class="st12" d="M380.1,83.21h-4.45v-4.45h4.45V83.21z M375.92,87.51h3.91v20.7h-3.91V87.51z"/>
		<path class="st11" d="M182.76,143.8v9.38h-7.19v-22.66l-0.39-5.86h6.48l0.43,2.42c1.17-1.76,3.01-2.97,5.82-2.97
			c5.66,0,7.62,4.06,7.62,10.12v1.56c0,6.05-1.95,10.12-7.62,10.12C185.58,145.92,183.93,145.1,182.76,143.8 M182.76,138.14
			c0.39,0.58,1.44,1.6,3.01,1.6c1.95,0,2.62-1.41,2.62-3.95v-1.56c0-2.54-0.66-3.94-2.62-3.94c-1.56,0-2.62,1.01-3.01,1.6V138.14z"
			/>
		<path class="st11" d="M208.93,139c0-0.86-0.39-1.41-2.34-1.56c-5.94-0.47-8.71-1.76-8.71-5.9v-0.39c0-5.12,4.06-7.03,8.98-7.03
			c6.21,0,8.98,2.62,8.98,7.19v0.19h-7.03c0-1.25-0.67-1.99-1.95-1.99c-1.29,0-1.95,0.59-1.95,1.41c0,0.98,0.51,1.33,2.27,1.49
			c5.19,0.43,8.94,1.37,8.94,5.9v0.39c0,4.53-3.05,7.23-9.26,7.23c-6.1,0-9.26-2.7-9.26-6.99v-0.2h7.15c0,1.13,0.62,1.8,2.11,1.8
			C208.42,140.52,208.93,139.82,208.93,139"/>
		<path class="st11" d="M226.39,122.32h-7.42v-7.42h7.42V122.32z M219.09,124.67h7.19v20.7h-7.19V124.67z"/>
		<path class="st11" d="M238.85,139.74c1.41,0,2.26-0.82,2.26-2.19h6.76v0.94c0,4.53-3.16,7.42-9.18,7.42
			c-6.68,0-9.57-4.06-9.57-10.12v-1.56c0-6.05,2.89-10.12,9.57-10.12c6.02,0,9.18,2.89,9.18,7.81v0.94h-6.76
			c0-1.8-0.86-2.58-2.26-2.58c-1.91,0-2.58,1.4-2.58,3.94v1.56C236.28,138.34,236.94,139.74,238.85,139.74"/>
		<path class="st11" d="M249.75,135.8v-1.56c0-6.05,3.13-10.12,9.96-10.12c6.84,0,9.96,4.07,9.96,10.12v1.56
			c0,6.05-3.12,10.12-9.96,10.12C252.88,145.92,249.75,141.85,249.75,135.8 M262.53,135.8v-1.56c0-2.54-0.86-3.95-2.81-3.95
			c-1.95,0-2.81,1.41-2.81,3.95v1.56c0,2.54,0.86,3.94,2.81,3.94C261.67,139.74,262.53,138.34,262.53,135.8"/>
		<path class="st11" d="M296.12,145.37v-12.89c0-1.17-0.43-2.18-1.99-2.18c-1.37,0-2.19,0.82-2.58,1.4v13.67h-7.19v-12.89
			c0-1.17-0.43-2.18-1.99-2.18c-1.37,0-2.19,0.82-2.58,1.4v13.67h-7.19v-14.84l-0.39-5.86h6.49l0.43,2.38
			c1.29-1.76,3.28-2.93,6.17-2.93c2.77,0,4.49,1.29,5.43,3.17c1.25-1.87,3.32-3.17,6.32-3.17c4.49,0,6.25,3.28,6.25,7.19v14.06
			H296.12z"/>
		<path class="st11" d="M306,135.8v-1.56c0-6.05,3.13-10.12,9.96-10.12c6.84,0,9.96,4.07,9.96,10.12v1.56
			c0,6.05-3.12,10.12-9.96,10.12C309.13,145.92,306,141.85,306,135.8 M318.77,135.8v-1.56c0-2.54-0.86-3.95-2.81-3.95
			c-1.96,0-2.81,1.41-2.81,3.95v1.56c0,2.54,0.86,3.94,2.81,3.94C317.92,139.74,318.77,138.34,318.77,135.8"/>
		<path class="st11" d="M342.29,124.67v6.25h-4.96v6.05c0,2.35,1.13,2.77,2.77,2.77c0.63,0,1.6-0.15,1.8-0.23v5.86
			c-0.35,0.19-1.52,0.55-3.47,0.55c-4.96,0-8.28-2.11-8.28-8.17v-6.84h-3.12v-6.25h3.12v-5.86h7.19v5.86H342.29z"/>
		<path class="st11" d="M358.11,124.16v7.34h-1.17c-2.34,0-3.71,0.78-4.18,1.37v12.5h-7.19v-14.85l-0.39-5.86h6.48l0.43,2.3
			c1.25-1.72,3.08-2.85,5.43-2.85C357.72,124.12,357.92,124.12,358.11,124.16"/>
		<path class="st11" d="M368.42,122.32H361v-7.42h7.42V122.32z M361.12,124.67h7.19v20.7h-7.19V124.67z"/>
		<path class="st11" d="M380.88,139.74c1.41,0,2.27-0.82,2.27-2.19h6.75v0.94c0,4.53-3.16,7.42-9.18,7.42
			c-6.68,0-9.57-4.06-9.57-10.12v-1.56c0-6.05,2.89-10.12,9.57-10.12c6.02,0,9.18,2.89,9.18,7.81v0.94h-6.75
			c0-1.8-0.86-2.58-2.27-2.58c-1.91,0-2.58,1.4-2.58,3.94v1.56C378.3,138.34,378.97,139.74,380.88,139.74"/>
		<path class="st11" d="M399.98,122.32h-7.42v-7.42h7.42V122.32z M392.68,124.67h7.19v20.7h-7.19V124.67z"/>
		<path class="st11" d="M417.6,124.67v6.25h-4.96v6.05c0,2.35,1.14,2.77,2.78,2.77c0.62,0,1.6-0.15,1.8-0.23v5.86
			c-0.35,0.19-1.52,0.55-3.48,0.55c-4.96,0-8.28-2.11-8.28-8.17v-6.84h-3.12v-6.25h3.12v-5.86h7.19v5.86H417.6z"/>
		<path class="st11" d="M432.6,143.42c-1.45,1.52-3.52,2.5-6.25,2.5c-4.89,0-6.45-3.09-6.45-6.41v-0.39c0-4.49,3.01-6.01,7.62-6.72
			l4.37-0.71c-0.08-1.48-0.67-2.19-2.23-2.19c-1.76,0-2.22,1.02-2.22,1.99h-6.76v-0.35c0-3.75,2.15-7.03,9.18-7.03
			c7.07,0,9.22,2.85,9.22,7.97v7.42l0.39,5.86h-6.48L432.6,143.42z M429.87,114.9l3.55,7.42h-7.11l-4.34-7.42H429.87z M431.9,139
			v-3.17l-2.81,0.43c-1.68,0.27-2.03,1.01-2.03,1.95v0.24c0,0.82,0.55,1.68,2.03,1.68C430.3,140.14,431.31,139.55,431.9,139"/>
		<path class="st11" d="M188.15,161.31v7.34h-1.17c-2.34,0-3.71,0.78-4.18,1.37v12.5h-7.19v-14.84l-0.39-5.86h6.48l0.43,2.3
			c1.25-1.72,3.09-2.85,5.43-2.85C187.76,161.27,187.96,161.27,188.15,161.31"/>
		<path class="st11" d="M196.51,174.71c0.24,2.35,1.41,2.97,3.2,2.97c1.56,0,2.78-0.82,2.78-1.8h6.75v0.16
			c0,4.14-3.55,7.03-9.57,7.03c-7.07,0-10.35-4.26-10.35-10.31v-1.17c0-6.05,3.44-10.31,10.12-10.31c6.68,0,9.8,4.26,9.8,10.31v3.12
			H196.51z M196.51,169.63h5.55c-0.2-2.19-1.1-2.97-2.78-2.97C197.6,166.67,196.71,167.45,196.51,169.63"/>
		<rect x="212.1" y="151.27" class="st11" width="7.19" height="31.25"/>
		<path class="st11" d="M234.83,180.57c-1.44,1.52-3.51,2.5-6.25,2.5c-4.88,0-6.45-3.09-6.45-6.41v-0.39c0-4.49,3.01-6.01,7.62-6.72
			l4.37-0.71c-0.08-1.48-0.67-2.19-2.23-2.19c-1.76,0-2.23,1.02-2.23,1.99h-6.76v-0.35c0-3.75,2.15-7.03,9.18-7.03
			c7.07,0,9.22,2.85,9.22,7.97v7.42l0.39,5.86h-6.48L234.83,180.57z M234.13,176.16v-3.17l-2.81,0.43
			c-1.68,0.27-2.03,1.01-2.03,1.95v0.24c0,0.82,0.55,1.68,2.03,1.68C232.53,177.29,233.54,176.7,234.13,176.16"/>
		<polygon class="st11" points="252.33,167.91 248.11,168.07 244.21,168.07 244.21,161.82 261.79,161.82 261.79,166.74 
			253.27,176.43 257.49,176.27 262.18,176.27 262.18,182.52 243.82,182.52 243.82,177.6 		"/>
		<path class="st11" d="M272.14,159.48h-7.42v-7.42h7.42V159.48z M264.83,161.82h7.19v20.7h-7.19V161.82z"/>
		<path class="st11" d="M274.87,172.95v-1.56c0-6.05,3.13-10.12,9.96-10.12c6.84,0,9.96,4.06,9.96,10.12v1.56
			c0,6.06-3.12,10.12-9.96,10.12C277.99,183.07,274.87,179.01,274.87,172.95 M287.64,172.95v-1.56c0-2.54-0.86-3.95-2.81-3.95
			c-1.95,0-2.81,1.41-2.81,3.95v1.56c0,2.54,0.86,3.94,2.81,3.94C286.78,176.9,287.64,175.49,287.64,172.95"/>
		<path class="st11" d="M310.11,182.52v-12.7c0-0.98-0.24-2.38-2.19-2.38c-1.56,0-2.62,1.01-3.01,1.6v13.48h-7.19v-14.84l-0.39-5.86
			h6.49l0.47,2.58c1.37-1.84,3.48-3.13,6.56-3.13c4.88,0,6.45,3.67,6.45,7.38v13.87H310.11z"/>
		<path class="st11" d="M332.68,180.57c-1.45,1.52-3.52,2.5-6.25,2.5c-4.89,0-6.45-3.09-6.45-6.41v-0.39c0-4.49,3.01-6.01,7.62-6.72
			l4.37-0.71c-0.08-1.48-0.67-2.19-2.23-2.19c-1.76,0-2.22,1.02-2.22,1.99h-6.76v-0.35c0-3.75,2.15-7.03,9.18-7.03
			c7.07,0,9.22,2.85,9.22,7.97v7.42l0.39,5.86h-6.48L332.68,180.57z M331.98,176.16v-3.17l-2.81,0.43
			c-1.68,0.27-2.03,1.01-2.03,1.95v0.24c0,0.82,0.55,1.68,2.03,1.68C330.38,177.29,331.39,176.7,331.98,176.16"/>
		<rect x="342.76" y="151.27" class="st11" width="7.19" height="31.25"/>
		<path class="st11" d="M359.99,174.71c0.23,2.35,1.4,2.97,3.2,2.97c1.56,0,2.78-0.82,2.78-1.8h6.75v0.16
			c0,4.14-3.55,7.03-9.57,7.03c-7.07,0-10.35-4.26-10.35-10.31v-1.17c0-6.05,3.44-10.31,10.12-10.31s9.8,4.26,9.8,10.31v3.12H359.99
			z M359.99,169.63h5.55c-0.19-2.19-1.09-2.97-2.77-2.97C361.08,166.67,360.18,167.45,359.99,169.63"/>
		<g class="st13">
			<g>
				<defs>
					<rect id="SVGID_13_" x="142.12" y="101.8" width="12.4" height="12.4"/>
				</defs>
				<clipPath id="SVGID_14_">
					<use xlink:href="#SVGID_13_"  style="overflow:visible;"/>
				</clipPath>
				<path class="st14" d="M142.27,109.33c0.73,3.34,4.04,5.46,7.39,4.73c3.34-0.73,5.46-4.04,4.73-7.38
					c-0.73-3.35-4.04-5.46-7.38-4.73C143.65,102.67,141.54,105.98,142.27,109.33"/>
			</g>
		</g>
		<g class="st15">
			<g>
				<defs>
					<rect id="SVGID_15_" x="62.43" y="187.32" width="6.86" height="6.86"/>
				</defs>
				<clipPath id="SVGID_16_">
					<use xlink:href="#SVGID_15_"  style="overflow:visible;"/>
				</clipPath>
				<path class="st16" d="M62.53,191.56c0.45,1.84,2.3,2.97,4.14,2.52c1.84-0.45,2.97-2.3,2.52-4.14c-0.45-1.84-2.3-2.96-4.14-2.52
					C63.2,187.87,62.07,189.72,62.53,191.56"/>
			</g>
		</g>
		<g class="st6">
			<g>
				<defs>
					<rect id="SVGID_17_" x="134.4" y="71.7" width="7.99" height="6.7"/>
				</defs>
				<clipPath id="SVGID_18_">
					<use xlink:href="#SVGID_17_"  style="overflow:visible;"/>
				</clipPath>
				<path class="st17" d="M139.29,78.21c2.15-0.61,3.49-2.52,3-4.26c-0.49-1.74-2.64-2.67-4.79-2.06c-2.15,0.61-3.49,2.52-3,4.26
					C135,77.9,137.14,78.82,139.29,78.21"/>
			</g>
		</g>
		<g class="st18">
			<g>
				<defs>
					<rect id="SVGID_19_" x="127.52" y="98.99" width="6.55" height="6.55"/>
				</defs>
				<clipPath id="SVGID_20_">
					<use xlink:href="#SVGID_19_"  style="overflow:visible;"/>
				</clipPath>
				<path class="st19" d="M131.02,105.53c1.8-0.13,3.16-1.69,3.04-3.49c-0.13-1.8-1.69-3.17-3.5-3.04c-1.8,0.13-3.16,1.69-3.03,3.49
					C127.66,104.29,129.22,105.65,131.02,105.53"/>
			</g>
		</g>
		<g class="st20">
			<g>
				<defs>
					<rect id="SVGID_21_" x="83.09" y="111.77" width="10.33" height="8.61"/>
				</defs>
				<clipPath id="SVGID_22_">
					<use xlink:href="#SVGID_21_"  style="overflow:visible;"/>
				</clipPath>
				<path class="st21" d="M89.29,120.18c2.8-0.7,4.6-3.11,4.03-5.38c-0.57-2.27-3.3-3.54-6.09-2.84c-2.8,0.7-4.6,3.11-4.03,5.38
					C83.77,119.61,86.49,120.88,89.29,120.18"/>
			</g>
		</g>
		<g class="st8">
			<g>
				<defs>
					<rect id="SVGID_23_" x="34.66" y="109.57" width="6.84" height="6.84"/>
				</defs>
				<clipPath id="SVGID_24_">
					<use xlink:href="#SVGID_23_"  style="overflow:visible;"/>
				</clipPath>
				<path class="st22" d="M40.08,115.76c1.53-1.1,1.88-3.24,0.78-4.78c-1.1-1.53-3.24-1.88-4.78-0.77c-1.53,1.1-1.88,3.24-0.78,4.77
					C36.41,116.52,38.55,116.87,40.08,115.76"/>
			</g>
		</g>
		<g class="st13">
			<g>
				<defs>
					<rect id="SVGID_25_" x="63.12" y="123.74" width="3.82" height="5.88"/>
				</defs>
				<clipPath id="SVGID_26_">
					<use xlink:href="#SVGID_25_"  style="overflow:visible;"/>
				</clipPath>
				<path class="st23" d="M63.13,126.74c0.05,1.62,0.94,2.92,1.99,2.88c1.06-0.03,1.87-1.37,1.82-2.99
					c-0.05-1.62-0.94-2.92-1.99-2.88C63.9,123.77,63.08,125.11,63.13,126.74"/>
			</g>
		</g>
		<g class="st8">
			<g>
				<defs>
					<rect id="SVGID_27_" x="81.08" y="178.73" width="13.81" height="13.81"/>
				</defs>
				<clipPath id="SVGID_28_">
					<use xlink:href="#SVGID_27_"  style="overflow:visible;"/>
				</clipPath>
				<path class="st24" d="M83.28,180.58c-2.79,2.6-2.95,6.97-0.35,9.76c2.6,2.79,6.97,2.95,9.76,0.35c2.79-2.6,2.95-6.97,0.35-9.76
					C90.44,178.14,86.07,177.98,83.28,180.58"/>
			</g>
		</g>
		<g class="st6">
			<g>
				<defs>
					<rect id="SVGID_29_" x="105.83" y="112.43" width="12.5" height="12.5"/>
				</defs>
				<clipPath id="SVGID_30_">
					<use xlink:href="#SVGID_29_"  style="overflow:visible;"/>
				</clipPath>
				<path class="st25" d="M111.97,124.92c3.45,0.06,6.3-2.68,6.37-6.13c0.06-3.45-2.68-6.3-6.13-6.37c-3.45-0.06-6.3,2.68-6.37,6.13
					C105.77,122.01,108.52,124.86,111.97,124.92"/>
			</g>
		</g>
		<path class="st26" d="M91.51,165.85c1.11,1.07,2.87,1.03,3.94-0.07c1.07-1.11,1.04-2.87-0.07-3.94c-1.11-1.07-2.87-1.03-3.94,0.08
			C90.37,163.01,90.4,164.78,91.51,165.85"/>
		<g class="st27">
			<g>
				<defs>
					<rect id="SVGID_31_" x="114.45" y="89.03" width="6.68" height="6.68"/>
				</defs>
				<clipPath id="SVGID_32_">
					<use xlink:href="#SVGID_31_"  style="overflow:visible;"/>
				</clipPath>
				<path class="st28" d="M117.96,89.03c-1.84-0.1-3.41,1.32-3.51,3.16c-0.1,1.84,1.32,3.41,3.16,3.51c1.84,0.1,3.41-1.32,3.51-3.16
					C121.21,90.7,119.8,89.13,117.96,89.03"/>
			</g>
		</g>
		<g class="st29">
			<g>
				<defs>
					<rect id="SVGID_33_" x="65.06" y="150.65" width="13.84" height="12.34"/>
				</defs>
				<clipPath id="SVGID_34_">
					<use xlink:href="#SVGID_33_"  style="overflow:visible;"/>
				</clipPath>
				<path class="st30" d="M74.74,151.67c-3.51-1.88-7.58-1.09-9.1,1.76c-1.52,2.85,0.08,6.67,3.59,8.55
					c3.51,1.87,7.58,1.09,9.1-1.76C79.85,157.38,78.24,153.55,74.74,151.67"/>
			</g>
		</g>
		<g class="st18">
			<g>
				<defs>
					<rect id="SVGID_35_" x="146.93" y="88.68" width="4.05" height="4.05"/>
				</defs>
				<clipPath id="SVGID_36_">
					<use xlink:href="#SVGID_35_"  style="overflow:visible;"/>
				</clipPath>
				<path class="st31" d="M149.36,92.68c1.09-0.23,1.8-1.29,1.57-2.39c-0.23-1.09-1.3-1.8-2.39-1.57c-1.09,0.23-1.8,1.3-1.57,2.39
					C147.2,92.21,148.27,92.91,149.36,92.68"/>
			</g>
		</g>
		<g class="st13">
			<g>
				<defs>
					<rect id="SVGID_37_" x="31.08" y="167.63" width="13.16" height="10.91"/>
				</defs>
				<clipPath id="SVGID_38_">
					<use xlink:href="#SVGID_37_"  style="overflow:visible;"/>
				</clipPath>
				<path class="st32" d="M38.86,178.33c3.57-0.82,5.93-3.83,5.26-6.73c-0.67-2.9-4.1-4.59-7.67-3.77
					c-3.57,0.82-5.93,3.83-5.26,6.73C31.86,177.47,35.29,179.15,38.86,178.33"/>
			</g>
		</g>
		<g class="st15">
			<g>
				<defs>
					<rect id="SVGID_39_" x="125.82" y="173.65" width="8.7" height="8.7"/>
				</defs>
				<clipPath id="SVGID_40_">
					<use xlink:href="#SVGID_39_"  style="overflow:visible;"/>
				</clipPath>
				<path class="st33" d="M133.16,181.16c1.74-1.65,1.82-4.4,0.17-6.14c-1.65-1.75-4.4-1.82-6.14-0.17
					c-1.74,1.65-1.82,4.4-0.17,6.14C128.66,182.73,131.41,182.8,133.16,181.16"/>
			</g>
		</g>
		<g class="st34">
			<g>
				<defs>
					<rect id="SVGID_41_" x="158.35" y="123.12" width="6.57" height="6.57"/>
				</defs>
				<clipPath id="SVGID_42_">
					<use xlink:href="#SVGID_41_"  style="overflow:visible;"/>
				</clipPath>
				<path class="st35" d="M159.95,129.22c1.56,0.93,3.58,0.43,4.51-1.13c0.94-1.56,0.43-3.57-1.12-4.51
					c-1.56-0.94-3.58-0.43-4.51,1.12C157.89,126.27,158.39,128.29,159.95,129.22"/>
			</g>
		</g>
		<g class="st36">
			<g>
				<defs>
					<rect id="SVGID_43_" x="106.47" y="169.3" width="4.98" height="3.8"/>
				</defs>
				<clipPath id="SVGID_44_">
					<use xlink:href="#SVGID_43_"  style="overflow:visible;"/>
				</clipPath>
				<path class="st37" d="M109.36,169.38c-1.36-0.3-2.64,0.28-2.85,1.29c-0.22,1.01,0.7,2.06,2.06,2.36
					c1.36,0.29,2.64-0.28,2.85-1.29C111.64,170.73,110.71,169.68,109.36,169.38"/>
			</g>
		</g>
		<g class="st38">
			<g>
				<defs>
					<rect id="SVGID_45_" x="63.99" y="84.95" width="6.9" height="3.96"/>
				</defs>
				<clipPath id="SVGID_46_">
					<use xlink:href="#SVGID_45_"  style="overflow:visible;"/>
				</clipPath>
				<path class="st39" d="M67.94,88.64c1.88-0.55,3.19-1.76,2.91-2.71c-0.28-0.94-2.03-1.26-3.91-0.71
					c-1.88,0.55-3.19,1.76-2.91,2.71C64.31,88.87,66.06,89.19,67.94,88.64"/>
			</g>
		</g>
		<g class="st38">
			<g>
				<defs>
					<rect id="SVGID_47_" x="54.22" y="146" width="5.74" height="4.68"/>
				</defs>
				<clipPath id="SVGID_48_">
					<use xlink:href="#SVGID_47_"  style="overflow:visible;"/>
				</clipPath>
				<path class="st40" d="M57.32,150.67c1.58-0.16,2.76-1.33,2.63-2.61c-0.13-1.29-1.51-2.2-3.1-2.04
					c-1.58,0.16-2.76,1.33-2.63,2.61C54.35,149.92,55.74,150.83,57.32,150.67"/>
			</g>
		</g>
		<g class="st41">
			<g>
				<defs>
					<rect id="SVGID_49_" x="138.71" y="144.89" width="9.62" height="9.62"/>
				</defs>
				<clipPath id="SVGID_50_">
					<use xlink:href="#SVGID_49_"  style="overflow:visible;"/>
				</clipPath>
				<path class="st42" d="M140.48,145.98c-2.05,1.68-2.36,4.71-0.67,6.77c1.69,2.05,4.72,2.36,6.77,0.67
					c2.05-1.69,2.35-4.72,0.67-6.78C145.56,144.59,142.53,144.3,140.48,145.98"/>
			</g>
		</g>
		<g class="st2">
			<g>
				<defs>
					<rect id="SVGID_51_" x="57.09" y="103.97" width="13.46" height="7.23"/>
				</defs>
				<clipPath id="SVGID_52_">
					<use xlink:href="#SVGID_51_"  style="overflow:visible;"/>
				</clipPath>
				<path class="st43" d="M64.5,104.24c-3.7-0.76-7,0.13-7.38,1.98c-0.37,1.85,2.32,3.96,6.01,4.71c3.7,0.76,7-0.13,7.37-1.98
					C70.89,107.1,68.2,104.99,64.5,104.24"/>
			</g>
		</g>
		<g class="st13">
			<g>
				<defs>
					<rect id="SVGID_53_" x="94.23" y="66.51" width="23.79" height="23.79"/>
				</defs>
				<clipPath id="SVGID_54_">
					<use xlink:href="#SVGID_53_"  style="overflow:visible;"/>
				</clipPath>
				<path class="st44" d="M105.3,66.54c-6.55,0.45-11.5,6.13-11.05,12.69c0.45,6.55,6.14,11.5,12.69,11.04
					c6.55-0.45,11.5-6.13,11.05-12.69C117.54,71.03,111.86,66.08,105.3,66.54"/>
			</g>
		</g>
		<g class="st45">
			<g>
				<defs>
					<rect id="SVGID_55_" x="97.54" y="129.67" width="6.29" height="6.29"/>
				</defs>
				<clipPath id="SVGID_56_">
					<use xlink:href="#SVGID_55_"  style="overflow:visible;"/>
				</clipPath>
				<path class="st46" d="M98.28,130.78c-1.12,1.33-0.96,3.31,0.36,4.43c1.33,1.12,3.31,0.96,4.43-0.37
					c1.12-1.32,0.96-3.3-0.37-4.43C101.39,129.29,99.4,129.46,98.28,130.78"/>
			</g>
		</g>
		<g class="st8">
			<g>
				<defs>
					<rect id="SVGID_57_" x="154.89" y="161.13" width="7.99" height="7.99"/>
				</defs>
				<clipPath id="SVGID_58_">
					<use xlink:href="#SVGID_57_"  style="overflow:visible;"/>
				</clipPath>
				<path class="st47" d="M157.82,161.28c-2.12,0.59-3.37,2.79-2.78,4.92c0.59,2.13,2.79,3.37,4.91,2.78
					c2.12-0.59,3.37-2.79,2.78-4.92C162.14,161.94,159.94,160.69,157.82,161.28"/>
			</g>
		</g>
		<g class="st13">
			<g>
				<defs>
					<rect id="SVGID_59_" x="70.79" y="122.2" width="22.16" height="22.16"/>
				</defs>
				<clipPath id="SVGID_60_">
					<use xlink:href="#SVGID_59_"  style="overflow:visible;"/>
				</clipPath>
				<path class="st48" d="M70.87,132c-0.71,6.08,3.65,11.58,9.73,12.29c6.08,0.71,11.58-3.65,12.29-9.73
					c0.71-6.08-3.65-11.58-9.73-12.29C77.07,121.57,71.57,125.92,70.87,132"/>
			</g>
		</g>
		<g class="st49">
			<g>
				<defs>
					<rect id="SVGID_61_" x="120.45" y="155.01" width="10.84" height="10.84"/>
				</defs>
				<clipPath id="SVGID_62_">
					<use xlink:href="#SVGID_61_"  style="overflow:visible;"/>
				</clipPath>
				<path class="st50" d="M130.21,157.17c-1.8-2.39-5.19-2.88-7.59-1.08c-2.4,1.79-2.88,5.19-1.08,7.58c1.8,2.4,5.19,2.88,7.59,1.08
					C131.52,162.96,132,159.57,130.21,157.17"/>
			</g>
		</g>
		<g class="st29">
			<g>
				<defs>
					<rect id="SVGID_63_" x="101.21" y="137.76" width="15.46" height="15.46"/>
				</defs>
				<clipPath id="SVGID_64_">
					<use xlink:href="#SVGID_63_"  style="overflow:visible;"/>
				</clipPath>
				<path class="st51" d="M113.51,151.73c3.45-2.52,4.2-7.35,1.68-10.8c-2.52-3.44-7.35-4.2-10.8-1.68
					c-3.45,2.52-4.2,7.35-1.68,10.8C105.22,153.49,110.06,154.25,113.51,151.73"/>
			</g>
		</g>
		<g class="st8">
			<g>
				<defs>
					<rect id="SVGID_65_" x="143.22" y="165.6" width="7.05" height="7.05"/>
				</defs>
				<clipPath id="SVGID_66_">
					<use xlink:href="#SVGID_65_"  style="overflow:visible;"/>
				</clipPath>
				<path class="st52" d="M149.35,166.75c-1.31-1.44-3.54-1.53-4.98-0.22c-1.44,1.31-1.54,3.54-0.22,4.98
					c1.32,1.44,3.54,1.54,4.98,0.22C150.56,170.41,150.66,168.18,149.35,166.75"/>
			</g>
		</g>
		<g class="st53">
			<g>
				<defs>
					<rect id="SVGID_67_" x="68.47" y="66.36" width="4.71" height="4.49"/>
				</defs>
				<clipPath id="SVGID_68_">
					<use xlink:href="#SVGID_67_"  style="overflow:visible;"/>
				</clipPath>
				<path class="st54" d="M68.69,67.5c-0.55,1.18-0.04,2.58,1.14,3.13c1.18,0.55,2.58,0.04,3.13-1.14c0.55-1.18,0.04-2.58-1.14-3.13
					"/>
			</g>
		</g>
		<g class="st8">
			<g>
				<defs>
					<rect id="SVGID_69_" x="34.28" y="145.94" width="4.8" height="4.8"/>
				</defs>
				<clipPath id="SVGID_70_">
					<use xlink:href="#SVGID_69_"  style="overflow:visible;"/>
				</clipPath>
				<path class="st55" d="M35.28,146.4c-1.08,0.77-1.32,2.27-0.55,3.35c0.77,1.08,2.27,1.32,3.35,0.55
					c1.08-0.78,1.32-2.27,0.55-3.35C37.86,145.87,36.36,145.62,35.28,146.4"/>
			</g>
		</g>
		<g class="st8">
			<g>
				<defs>
					<rect id="SVGID_71_" x="25.17" y="126.22" width="9.65" height="12.76"/>
				</defs>
				<clipPath id="SVGID_72_">
					<use xlink:href="#SVGID_71_"  style="overflow:visible;"/>
				</clipPath>
				<path class="st56" d="M25.31,133.44c0.63,3.49,3.24,5.95,5.82,5.48c2.59-0.47,4.18-3.67,3.56-7.16
					c-0.63-3.49-3.24-5.95-5.82-5.48C26.28,126.74,24.69,129.95,25.31,133.44"/>
			</g>
		</g>
		<g class="st13">
			<g>
				<defs>
					<rect id="SVGID_73_" x="105.14" y="182.13" width="15.44" height="15.44"/>
				</defs>
				<clipPath id="SVGID_74_">
					<use xlink:href="#SVGID_73_"  style="overflow:visible;"/>
				</clipPath>
				<path class="st57" d="M105.27,188.43c-0.79,4.19,1.96,8.23,6.15,9.02c4.19,0.79,8.23-1.96,9.02-6.16
					c0.79-4.19-1.96-8.23-6.15-9.02C110.1,181.48,106.06,184.24,105.27,188.43"/>
			</g>
		</g>
		<path class="st58" d="M86.06,198.64c-0.86,1.7-0.18,3.77,1.51,4.64c1.7,0.86,3.77,0.18,4.64-1.51c0.86-1.7,0.19-3.78-1.51-4.64
			C89,196.26,86.92,196.94,86.06,198.64"/>
	</g>
</g>
</svg>
